<svg width="1731.781396484375px" height="159.2px" xmlns="http://www.w3.org/2000/svg" viewBox="-615.8906982421875 -4.599999999999994 1731.781396484375 159.2" style="background: rgba(0, 0, 0, 0);" preserveAspectRatio="xMidYMid"><defs><filter id="editing-raise" x="-100%" y="-100%" width="300%" height="300%"><feFlood flood-color="#000000" result="flood-surface"></feFlood><feFlood flood-color="none" result="flood-extrude"></feFlood><feMorphology operator="erode" in="SourceAlpha" radius="1" result="erode"></feMorphology><feConvolveMatrix in="erode" result="shadow" order="11,8" divisor="1" kernelMatrix="0 0 0 1 1 1 1 1 0 0 0 0 0 1 0 0 0 0 0 1 0 0 0 0 1 0 0 0 0 0 1 0 0 0 0 1 0 0 0 0 0 1 0 0 0 0 1 0 0 0 0 0 1 0 0 0 0 0 1 0 0 0 1 0 0 0 0 0 0 1 1 0 1 1 0 0 0 0 0 0 0 0 1 0 0 0 0 0"></feConvolveMatrix><feOffset dx="0" dy="4" in="shadow" result="offset"></feOffset><feGaussianBlur in="offset" stdDeviation="0.2" result="blur"></feGaussianBlur><feComposite operator="in" in="flood-extrude" in2="blur" result="extrude"></feComposite><feMorphology operator="erode" in="SourceAlpha" radius="1" result="erode2"></feMorphology><feConvolveMatrix in="erode2" result="out" order="4,4" divisor="1" kernelMatrix="0 1 1 0 1 0 0 1 1 0 0 1 0 1 1 0 "></feConvolveMatrix><feComposite operator="in" in="flood-surface" in2="out" result="text"></feComposite><feMerge><feMergeNode in="extrude"></feMergeNode><feMergeNode in="text"></feMergeNode></feMerge></filter></defs><g filter="url(#editing-raise)"><g transform="translate(-380.3699402809143, 114.43500328063965)"><path d="M57.34-10.16L57.34 0L11.02 0L11.02 0Q9.92 0 8.98-0.39L8.98-0.39L8.98-0.39Q8.05-0.78 7.36-1.46L7.36-1.46L7.36-1.46Q6.68-2.15 6.29-3.09L6.29-3.09L6.29-3.09Q5.90-4.02 5.90-5.12L5.90-5.12L5.90-56.02L16.05-56.02L16.05-10.16L57.34-10.16ZM109.10-28.24L109.10-28.24L109.10-28.24Q109.10-26.13 108.36-23.69L108.36-23.69L108.36-23.69Q107.62-21.25 105.96-19.16L105.96-19.16L105.96-19.16Q104.30-17.07 101.62-15.66L101.62-15.66L101.62-15.66Q98.95-14.26 95.12-14.26L95.12-14.26L76.80-14.26L76.80-23.91L95.12-23.91L95.12-23.91Q97.19-23.91 98.32-25.18L98.32-25.18L98.32-25.18Q99.45-26.45 99.45-28.32L99.45-28.32L99.45-28.32Q99.45-30.31 98.18-31.45L98.18-31.45L98.18-31.45Q96.91-32.58 95.12-32.58L95.12-32.58L76.80-32.58L76.80-32.58Q74.73-32.58 73.59-31.31L73.59-31.31L73.59-31.31Q72.46-30.04 72.46-28.16L72.46-28.16L72.46-13.98L72.46-13.98Q72.46-11.95 73.73-10.82L73.73-10.82L73.73-10.82Q75-9.69 76.88-9.69L76.88-9.69L95.12-9.69L95.12 0L76.80 0L76.80 0Q74.69 0 72.25-0.74L72.25-0.74L72.25-0.74Q69.80-1.48 67.71-3.14L67.71-3.14L67.71-3.14Q65.63-4.80 64.22-7.48L64.22-7.48L64.22-7.48Q62.81-10.16 62.81-13.98L62.81-13.98L62.81-28.24L62.81-28.24Q62.81-30.35 63.55-32.79L63.55-32.79L63.55-32.79Q64.30-35.23 65.96-37.32L65.96-37.32L65.96-37.32Q67.62-39.41 70.29-40.82L70.29-40.82L70.29-40.82Q72.97-42.23 76.80-42.23L76.80-42.23L95.12-42.23L95.12-42.23Q97.23-42.23 99.67-41.48L99.67-41.48L99.67-41.48Q102.11-40.74 104.20-39.08L104.20-39.08L104.20-39.08Q106.29-37.42 107.70-34.75L107.70-34.75L107.70-34.75Q109.10-32.07 109.10-28.24ZM154.34-42.23L154.34-32.07L136.60-32.07L136.60 0L126.33 0L126.33-32.07L113.13-32.07L113.13-42.23L126.33-42.23L126.33-56.02L136.60-56.02L136.60-42.23L154.34-42.23ZM169.57-53.67L167.97-33.98L161.48-33.98L160-53.67L169.57-53.67ZM218.83-14.26L218.83-14.26L218.83-14.26Q218.83-11.64 218.16-9.55L218.16-9.55L218.16-9.55Q217.50-7.46 216.41-5.88L216.41-5.88L216.41-5.88Q215.31-4.30 213.87-3.18L213.87-3.18L213.87-3.18Q212.42-2.07 210.84-1.37L210.84-1.37L210.84-1.37Q209.26-0.66 207.64-0.33L207.64-0.33L207.64-0.33Q206.02 0 204.57 0L204.57 0L177.07 0L177.07-10.16L204.49-10.16L204.49-10.16Q206.56-10.16 207.62-11.21L207.62-11.21L207.62-11.21Q208.67-12.27 208.67-14.26L208.67-14.26L208.67-14.26Q208.48-18.32 204.57-18.32L204.57-18.32L188.83-18.32L188.83-18.32Q185.47-18.32 183.13-19.49L183.13-19.49L183.13-19.49Q180.78-20.66 179.32-22.42L179.32-22.42L179.32-22.42Q177.85-24.18 177.21-26.21L177.21-26.21L177.21-26.21Q176.56-28.24 176.56-30L176.56-30L176.56-30Q176.56-33.40 177.77-35.72L177.77-35.72L177.77-35.72Q178.98-38.05 180.82-39.49L180.82-39.49L180.82-39.49Q182.66-40.94 184.80-41.58L184.80-41.58L184.80-41.58Q186.95-42.23 188.83-42.23L188.83-42.23L213.79-42.23L213.79-32.07L188.91-32.07L188.91-32.07Q188.13-32.07 187.68-31.89L187.68-31.89L187.68-31.89Q187.23-31.72 187.01-31.43L187.01-31.43L187.01-31.43Q186.80-31.13 186.76-30.80L186.76-30.80L186.76-30.80Q186.72-30.47 186.72-30.16L186.72-30.16L186.72-30.16Q186.76-29.53 186.95-29.18L186.95-29.18L186.95-29.18Q187.15-28.83 187.44-28.67L187.44-28.67L187.44-28.67Q187.73-28.52 188.11-28.50L188.11-28.50L188.11-28.50Q188.48-28.48 188.83-28.48L188.83-28.48L204.57-28.48L204.57-28.48Q208.48-28.48 211.21-27.07L211.21-27.07L211.21-27.07Q213.95-25.66 215.63-23.54L215.63-23.54L215.63-23.54Q217.30-21.41 218.07-18.91L218.07-18.91L218.07-18.91Q218.83-16.41 218.83-14.26ZM292.77-14.26L292.77-14.26L292.77-14.26Q292.77-11.64 292.11-9.55L292.11-9.55L292.11-9.55Q291.45-7.46 290.35-5.88L290.35-5.88L290.35-5.88Q289.26-4.30 287.81-3.18L287.81-3.18L287.81-3.18Q286.37-2.07 284.79-1.37L284.79-1.37L284.79-1.37Q283.20-0.66 281.58-0.33L281.58-0.33L281.58-0.33Q279.96 0 278.52 0L278.52 0L251.02 0L251.02-10.16L278.44-10.16L278.44-10.16Q280.51-10.16 281.56-11.21L281.56-11.21L281.56-11.21Q282.62-12.27 282.62-14.26L282.62-14.26L282.62-14.26Q282.42-18.32 278.52-18.32L278.52-18.32L262.77-18.32L262.77-18.32Q259.41-18.32 257.07-19.49L257.07-19.49L257.07-19.49Q254.73-20.66 253.26-22.42L253.26-22.42L253.26-22.42Q251.80-24.18 251.15-26.21L251.15-26.21L251.15-26.21Q250.51-28.24 250.51-30L250.51-30L250.51-30Q250.51-33.40 251.72-35.72L251.72-35.72L251.72-35.72Q252.93-38.05 254.77-39.49L254.77-39.49L254.77-39.49Q256.60-40.94 258.75-41.58L258.75-41.58L258.75-41.58Q260.90-42.23 262.77-42.23L262.77-42.23L287.73-42.23L287.73-32.07L262.85-32.07L262.85-32.07Q262.07-32.07 261.62-31.89L261.62-31.89L261.62-31.89Q261.17-31.72 260.96-31.43L260.96-31.43L260.96-31.43Q260.74-31.13 260.70-30.80L260.70-30.80L260.70-30.80Q260.66-30.47 260.66-30.16L260.66-30.16L260.66-30.16Q260.70-29.53 260.90-29.18L260.90-29.18L260.90-29.18Q261.09-28.83 261.39-28.67L261.39-28.67L261.39-28.67Q261.68-28.52 262.05-28.50L262.05-28.50L262.05-28.50Q262.42-28.48 262.77-28.48L262.77-28.48L278.52-28.48L278.52-28.48Q282.42-28.48 285.16-27.07L285.16-27.07L285.16-27.07Q287.89-25.66 289.57-23.54L289.57-23.54L289.57-23.54Q291.25-21.41 292.01-18.91L292.01-18.91L292.01-18.91Q292.77-16.41 292.77-14.26ZM337.58-42.23L337.58-32.07L319.84-32.07L319.84 0L309.57 0L309.57-32.07L296.37-32.07L296.37-42.23L309.57-42.23L309.57-56.02L319.84-56.02L319.84-42.23L337.58-42.23ZM385.43-28.24L385.43-13.98L385.43-13.98Q385.43-11.88 384.69-9.43L384.69-9.43L384.69-9.43Q383.95-6.99 382.29-4.90L382.29-4.90L382.29-4.90Q380.63-2.81 377.95-1.41L377.95-1.41L377.95-1.41Q375.27 0 371.45 0L371.45 0L353.13 0L353.13 0Q351.02 0 348.57-0.74L348.57-0.74L348.57-0.74Q346.13-1.48 344.04-3.14L344.04-3.14L344.04-3.14Q341.95-4.80 340.55-7.48L340.55-7.48L340.55-7.48Q339.14-10.16 339.14-13.98L339.14-13.98L339.14-13.98Q339.14-16.09 339.88-18.55L339.88-18.55L339.88-18.55Q340.63-21.02 342.29-23.11L342.29-23.11L342.29-23.11Q343.95-25.20 346.62-26.60L346.62-26.60L346.62-26.60Q349.30-28.01 353.13-28.01L353.13-28.01L371.45-28.01L371.45-18.32L353.13-18.32L353.13-18.32Q351.05-18.32 349.92-17.05L349.92-17.05L349.92-17.05Q348.79-15.78 348.79-13.91L348.79-13.91L348.79-13.91Q348.79-11.91 350.10-10.80L350.10-10.80L350.10-10.80Q351.41-9.69 353.20-9.69L353.20-9.69L371.45-9.69L371.45-9.69Q373.52-9.69 374.65-10.94L374.65-10.94L374.65-10.94Q375.78-12.19 375.78-14.06L375.78-14.06L375.78-28.24L375.78-28.24Q375.78-30.23 374.55-31.41L374.55-31.41L374.55-31.41Q373.32-32.58 371.45-32.58L371.45-32.58L349.14-32.58L349.14-42.23L371.45-42.23L371.45-42.23Q373.55-42.23 376.00-41.48L376.00-41.48L376.00-41.48Q378.44-40.74 380.53-39.08L380.53-39.08L380.53-39.08Q382.62-37.42 384.02-34.75L384.02-34.75L384.02-34.75Q385.43-32.07 385.43-28.24L385.43-28.24ZM431.05-42.23L431.05-32.07L408.20-32.07L408.20-32.07Q406.13-32.07 405.08-31.04L405.08-31.04L405.08-31.04Q404.02-30 404.02-28.01L404.02-28.01L404.02 0L393.87 0L393.87-28.01L393.87-28.01Q393.87-30.63 394.53-32.70L394.53-32.70L394.53-32.70Q395.20-34.77 396.31-36.35L396.31-36.35L396.31-36.35Q397.42-37.93 398.87-39.04L398.87-39.04L398.87-39.04Q400.31-40.16 401.89-40.86L401.89-40.86L401.89-40.86Q403.48-41.56 405.10-41.89L405.10-41.89L405.10-41.89Q406.72-42.23 408.13-42.23L408.13-42.23L431.05-42.23ZM476.13-42.23L476.13-32.07L458.40-32.07L458.40 0L448.13 0L448.13-32.07L434.92-32.07L434.92-42.23L448.13-42.23L448.13-56.02L458.40-56.02L458.40-42.23L476.13-42.23ZM555.16-60.08L555.16-14.26L555.16-14.26Q555.16-11.64 554.49-9.55L554.49-9.55L554.49-9.55Q553.83-7.46 552.73-5.88L552.73-5.88L552.73-5.88Q551.64-4.30 550.20-3.18L550.20-3.18L550.20-3.18Q548.75-2.07 547.17-1.37L547.17-1.37L547.17-1.37Q545.59-0.66 543.96-0.33L543.96-0.33L543.96-0.33Q542.34 0 540.90 0L540.90 0L522.58 0L522.58 0Q519.96 0 517.89-0.66L517.89-0.66L517.89-0.66Q515.82-1.33 514.24-2.44L514.24-2.44L514.24-2.44Q512.66-3.55 511.54-5L511.54-5L511.54-5Q510.43-6.45 509.73-8.03L509.73-8.03L509.73-8.03Q509.02-9.61 508.69-11.23L508.69-11.23L508.69-11.23Q508.36-12.85 508.36-14.26L508.36-14.26L508.36-28.01L508.36-28.01Q508.36-31.91 509.79-34.63L509.79-34.63L509.79-34.63Q511.21-37.34 513.34-39.04L513.34-39.04L513.34-39.04Q515.47-40.74 517.97-41.48L517.97-41.48L517.97-41.48Q520.47-42.23 522.58-42.23L522.58-42.23L540.90-42.23L540.90-32.07L522.66-32.07L522.66-32.07Q520.63-32.07 519.57-31.04L519.57-31.04L519.57-31.04Q518.52-30 518.52-28.01L518.52-28.01L518.52-14.34L518.52-14.34Q518.52-12.27 519.55-11.21L519.55-11.21L519.55-11.21Q520.59-10.16 522.58-10.16L522.58-10.16L540.90-10.16L540.90-10.16Q542.97-10.16 543.98-11.21L543.98-11.21L543.98-11.21Q545-12.27 545-14.26L545-14.26L545-60.08L555.16-60.08ZM601.80-42.23L601.80-32.07L578.95-32.07L578.95-32.07Q576.88-32.07 575.82-31.04L575.82-31.04L575.82-31.04Q574.77-30 574.77-28.01L574.77-28.01L574.77 0L564.61 0L564.61-28.01L564.61-28.01Q564.61-30.63 565.27-32.70L565.27-32.70L565.27-32.70Q565.94-34.77 567.05-36.35L567.05-36.35L567.05-36.35Q568.16-37.93 569.61-39.04L569.61-39.04L569.61-39.04Q571.05-40.16 572.64-40.86L572.64-40.86L572.64-40.86Q574.22-41.56 575.84-41.89L575.84-41.89L575.84-41.89Q577.46-42.23 578.87-42.23L578.87-42.23L601.80-42.23ZM618.79-60.08L618.79-50.90L608.63-50.90L608.63-60.08L618.79-60.08ZM618.79-42.23L618.79 0L608.63 0L608.63-42.23L618.79-42.23ZM675.31-23.44L675.31 0L665.16 0L665.16-23.44L665.16-23.44Q665.16-25.43 664.47-27.01L664.47-27.01L664.47-27.01Q663.79-28.59 662.62-29.73L662.62-29.73L662.62-29.73Q661.45-30.86 659.86-31.46L659.86-31.46L659.86-31.46Q658.28-32.07 656.45-32.07L656.45-32.07L638.67-32.07L638.67 0L628.52 0L628.52-37.19L628.52-37.19Q628.52-38.24 628.91-39.16L628.91-39.16L628.91-39.16Q629.30-40.08 630-40.76L630-40.76L630-40.76Q630.70-41.45 631.64-41.84L631.64-41.84L631.64-41.84Q632.58-42.23 633.63-42.23L633.63-42.23L656.52-42.23L656.52-42.23Q658.44-42.23 660.57-41.80L660.57-41.80L660.57-41.80Q662.70-41.37 664.79-40.41L664.79-40.41L664.79-40.41Q666.88-39.45 668.77-37.99L668.77-37.99L668.77-37.99Q670.66-36.52 672.13-34.43L672.13-34.43L672.13-34.43Q673.59-32.34 674.45-29.61L674.45-29.61L674.45-29.61Q675.31-26.88 675.31-23.44L675.31-23.44ZM709.92-23.05L733.83 0L719.18 0L698.71-19.77L698.71-19.77Q696.99-21.33 697.11-23.67L697.11-23.67L697.11-23.67Q697.19-24.77 697.68-25.72L697.68-25.72L697.68-25.72Q698.16-26.68 699.02-27.34L699.02-27.34L717.58-42.30L733.83-42.30L709.92-23.05ZM694.53-60.08L694.53 0L684.38 0L684.38-60.08L694.53-60.08ZM749.84-60.08L749.84-50.90L739.69-50.90L739.69-60.08L749.84-60.08ZM749.84-42.23L749.84 0L739.69 0L739.69-42.23L749.84-42.23ZM806.37-23.44L806.37 0L796.21 0L796.21-23.44L796.21-23.44Q796.21-25.43 795.53-27.01L795.53-27.01L795.53-27.01Q794.84-28.59 793.67-29.73L793.67-29.73L793.67-29.73Q792.50-30.86 790.92-31.46L790.92-31.46L790.92-31.46Q789.34-32.07 787.50-32.07L787.50-32.07L769.73-32.07L769.73 0L759.57 0L759.57-37.19L759.57-37.19Q759.57-38.24 759.96-39.16L759.96-39.16L759.96-39.16Q760.35-40.08 761.05-40.76L761.05-40.76L761.05-40.76Q761.76-41.45 762.70-41.84L762.70-41.84L762.70-41.84Q763.63-42.23 764.69-42.23L764.69-42.23L787.58-42.23L787.58-42.23Q789.49-42.23 791.62-41.80L791.62-41.80L791.62-41.80Q793.75-41.37 795.84-40.41L795.84-40.41L795.84-40.41Q797.93-39.45 799.82-37.99L799.82-37.99L799.82-37.99Q801.72-36.52 803.18-34.43L803.18-34.43L803.18-34.43Q804.65-32.34 805.51-29.61L805.51-29.61L805.51-29.61Q806.37-26.88 806.37-23.44L806.37-23.44ZM861.21-28.01L861.21 4.06L861.21 4.06Q861.21 6.68 860.55 8.77L860.55 8.77L860.55 8.77Q859.88 10.86 858.79 12.44L858.79 12.44L858.79 12.44Q857.70 14.02 856.25 15.14L856.25 15.14L856.25 15.14Q854.80 16.25 853.22 16.95L853.22 16.95L853.22 16.95Q851.64 17.66 850.02 17.99L850.02 17.99L850.02 17.99Q848.40 18.32 846.95 18.32L846.95 18.32L828.63 18.32L828.63 8.16L846.95 8.16L846.95 8.16Q849.02 8.16 850.04 7.11L850.04 7.11L850.04 7.11Q851.05 6.05 851.05 4.06L851.05 4.06L851.05-28.01L851.05-28.01Q851.05-30 850.04-31.04L850.04-31.04L850.04-31.04Q849.02-32.07 846.95-32.07L846.95-32.07L828.63-32.07L828.63-32.07Q826.76-32.07 825.66-30.92L825.66-30.92L825.66-30.92Q824.57-29.77 824.57-28.01L824.57-28.01L824.57-14.26L824.57-14.26Q824.57-12.27 825.63-11.21L825.63-11.21L825.63-11.21Q826.68-10.16 828.71-10.16L828.71-10.16L846.95-10.16L846.95 0L828.63 0L828.63 0Q827.19 0 825.59-0.33L825.59-0.33L825.59-0.33Q823.98-0.66 822.40-1.37L822.40-1.37L822.40-1.37Q820.82-2.07 819.38-3.18L819.38-3.18L819.38-3.18Q817.93-4.30 816.84-5.88L816.84-5.88L816.84-5.88Q815.74-7.46 815.08-9.55L815.08-9.55L815.08-9.55Q814.41-11.64 814.41-14.26L814.41-14.26L814.41-28.01L814.41-28.01Q814.41-29.45 814.75-31.05L814.75-31.05L814.75-31.05Q815.08-32.66 815.78-34.24L815.78-34.24L815.78-34.24Q816.48-35.82 817.60-37.27L817.60-37.27L817.60-37.27Q818.71-38.71 820.29-39.80L820.29-39.80L820.29-39.80Q821.88-40.90 823.95-41.56L823.95-41.56L823.95-41.56Q826.02-42.23 828.63-42.23L828.63-42.23L846.95-42.23L846.95-42.23Q848.40-42.23 850.02-41.89L850.02-41.89L850.02-41.89Q851.64-41.56 853.22-40.86L853.22-40.86L853.22-40.86Q854.80-40.16 856.25-39.04L856.25-39.04L856.25-39.04Q857.70-37.93 858.79-36.35L858.79-36.35L858.79-36.35Q859.88-34.77 860.55-32.70L860.55-32.70L860.55-32.70Q861.21-30.63 861.21-28.01L861.21-28.01ZM933.91-42.23L933.91-32.07L910.94-32.07L910.94-42.23L933.91-42.23ZM933.91-60.55L933.91-50.39L911.02-50.39L911.02-50.39Q908.95-50.39 907.89-49.36L907.89-49.36L907.89-49.36Q906.84-48.32 906.84-46.33L906.84-46.33L906.84 0L896.68 0L896.68-46.33L896.68-46.33Q896.68-48.95 897.34-51.02L897.34-51.02L897.34-51.02Q898.01-53.09 899.12-54.67L899.12-54.67L899.12-54.67Q900.23-56.25 901.68-57.36L901.68-57.36L901.68-57.36Q903.13-58.48 904.71-59.18L904.71-59.18L904.71-59.18Q906.29-59.88 907.89-60.21L907.89-60.21L907.89-60.21Q909.49-60.55 910.94-60.55L910.94-60.55L933.91-60.55ZM986.72-42.23L986.72-5.12L986.72-5.12Q986.72-4.02 986.33-3.09L986.33-3.09L986.33-3.09Q985.94-2.15 985.25-1.46L985.25-1.46L985.25-1.46Q984.57-0.78 983.65-0.39L983.65-0.39L983.65-0.39Q982.73 0 981.68 0L981.68 0L958.71 0L958.71 0Q956.84 0 954.71-0.43L954.71-0.43L954.71-0.43Q952.58-0.86 950.51-1.82L950.51-1.82L950.51-1.82Q948.44-2.77 946.50-4.24L946.50-4.24L946.50-4.24Q944.57-5.70 943.13-7.79L943.13-7.79L943.13-7.79Q941.68-9.88 940.80-12.62L940.80-12.62L940.80-12.62Q939.92-15.35 939.92-18.79L939.92-18.79L939.92-42.23L950.08-42.23L950.08-18.79L950.08-18.79Q950.08-16.80 950.76-15.21L950.76-15.21L950.76-15.21Q951.45-13.63 952.62-12.50L952.62-12.50L952.62-12.50Q953.79-11.37 955.37-10.76L955.37-10.76L955.37-10.76Q956.95-10.16 958.79-10.16L958.79-10.16L976.56-10.16L976.56-42.23L986.72-42.23ZM1037.15-10.16L1037.15 0L1009.61 0L1009.61 0Q1007.50 0 1005-0.74L1005-0.74L1005-0.74Q1002.50-1.48 1000.37-3.18L1000.37-3.18L1000.37-3.18Q998.24-4.88 996.82-7.60L996.82-7.60L996.82-7.60Q995.39-10.31 995.39-14.26L995.39-14.26L995.39-28.01L995.39-28.01Q995.39-29.45 995.72-31.05L995.72-31.05L995.72-31.05Q996.05-32.66 996.76-34.24L996.76-34.24L996.76-34.24Q997.46-35.82 998.57-37.27L998.57-37.27L998.57-37.27Q999.69-38.71 1001.27-39.80L1001.27-39.80L1001.27-39.80Q1002.85-40.90 1004.92-41.56L1004.92-41.56L1004.92-41.56Q1006.99-42.23 1009.61-42.23L1009.61-42.23L1037.15-42.23L1037.15-32.07L1009.61-32.07L1009.61-32.07Q1007.62-32.07 1006.58-31.05L1006.58-31.05L1006.58-31.05Q1005.55-30.04 1005.55-27.93L1005.55-27.93L1005.55-14.26L1005.55-14.26Q1005.55-12.27 1006.60-11.21L1006.60-11.21L1006.60-11.21Q1007.66-10.16 1009.69-10.16L1009.69-10.16L1037.15-10.16ZM1071.25-23.05L1095.16 0L1080.51 0L1060.04-19.77L1060.04-19.77Q1058.32-21.33 1058.44-23.67L1058.44-23.67L1058.44-23.67Q1058.52-24.77 1059.00-25.72L1059.00-25.72L1059.00-25.72Q1059.49-26.68 1060.35-27.34L1060.35-27.34L1078.91-42.30L1095.16-42.30L1071.25-23.05ZM1055.86-60.08L1055.86 0L1045.70 0L1045.70-60.08L1055.86-60.08ZM1144.92-28.24L1144.92-28.24L1144.92-28.24Q1144.92-26.13 1144.18-23.69L1144.18-23.69L1144.18-23.69Q1143.44-21.25 1141.78-19.16L1141.78-19.16L1141.78-19.16Q1140.12-17.07 1137.44-15.66L1137.44-15.66L1137.44-15.66Q1134.77-14.26 1130.94-14.26L1130.94-14.26L1112.62-14.26L1112.62-23.91L1130.94-23.91L1130.94-23.91Q1133.01-23.91 1134.14-25.18L1134.14-25.18L1134.14-25.18Q1135.27-26.45 1135.27-28.32L1135.27-28.32L1135.27-28.32Q1135.27-30.31 1134.00-31.45L1134.00-31.45L1134.00-31.45Q1132.73-32.58 1130.94-32.58L1130.94-32.58L1112.62-32.58L1112.62-32.58Q1110.55-32.58 1109.41-31.31L1109.41-31.31L1109.41-31.31Q1108.28-30.04 1108.28-28.16L1108.28-28.16L1108.28-13.98L1108.28-13.98Q1108.28-11.95 1109.55-10.82L1109.55-10.82L1109.55-10.82Q1110.82-9.69 1112.70-9.69L1112.70-9.69L1130.94-9.69L1130.94 0L1112.62 0L1112.62 0Q1110.51 0 1108.07-0.74L1108.07-0.74L1108.07-0.74Q1105.63-1.48 1103.54-3.14L1103.54-3.14L1103.54-3.14Q1101.45-4.80 1100.04-7.48L1100.04-7.48L1100.04-7.48Q1098.63-10.16 1098.63-13.98L1098.63-13.98L1098.63-28.24L1098.63-28.24Q1098.63-30.35 1099.38-32.79L1099.38-32.79L1099.38-32.79Q1100.12-35.23 1101.78-37.32L1101.78-37.32L1101.78-37.32Q1103.44-39.41 1106.11-40.82L1106.11-40.82L1106.11-40.82Q1108.79-42.23 1112.62-42.23L1112.62-42.23L1130.94-42.23L1130.94-42.23Q1133.05-42.23 1135.49-41.48L1135.49-41.48L1135.49-41.48Q1137.93-40.74 1140.02-39.08L1140.02-39.08L1140.02-39.08Q1142.11-37.42 1143.52-34.75L1143.52-34.75L1143.52-34.75Q1144.92-32.07 1144.92-28.24ZM1188.71-42.23L1188.71-32.07L1165.86-32.07L1165.86-32.07Q1163.79-32.07 1162.73-31.04L1162.73-31.04L1162.73-31.04Q1161.68-30 1161.68-28.01L1161.68-28.01L1161.68 0L1151.52 0L1151.52-28.01L1151.52-28.01Q1151.52-30.63 1152.19-32.70L1152.19-32.70L1152.19-32.70Q1152.85-34.77 1153.96-36.35L1153.96-36.35L1153.96-36.35Q1155.08-37.93 1156.52-39.04L1156.52-39.04L1156.52-39.04Q1157.97-40.16 1159.55-40.86L1159.55-40.86L1159.55-40.86Q1161.13-41.56 1162.75-41.89L1162.75-41.89L1162.75-41.89Q1164.38-42.23 1165.78-42.23L1165.78-42.23L1188.71-42.23ZM1236.21-14.26L1236.21-14.26L1236.21-14.26Q1236.21-11.64 1235.55-9.55L1235.55-9.55L1235.55-9.55Q1234.88-7.46 1233.79-5.88L1233.79-5.88L1233.79-5.88Q1232.70-4.30 1231.25-3.18L1231.25-3.18L1231.25-3.18Q1229.80-2.07 1228.22-1.37L1228.22-1.37L1228.22-1.37Q1226.64-0.66 1225.02-0.33L1225.02-0.33L1225.02-0.33Q1223.40 0 1221.95 0L1221.95 0L1194.45 0L1194.45-10.16L1221.88-10.16L1221.88-10.16Q1223.95-10.16 1225-11.21L1225-11.21L1225-11.21Q1226.05-12.27 1226.05-14.26L1226.05-14.26L1226.05-14.26Q1225.86-18.32 1221.95-18.32L1221.95-18.32L1206.21-18.32L1206.21-18.32Q1202.85-18.32 1200.51-19.49L1200.51-19.49L1200.51-19.49Q1198.16-20.66 1196.70-22.42L1196.70-22.42L1196.70-22.42Q1195.23-24.18 1194.59-26.21L1194.59-26.21L1194.59-26.21Q1193.95-28.24 1193.95-30L1193.95-30L1193.95-30Q1193.95-33.40 1195.16-35.72L1195.16-35.72L1195.16-35.72Q1196.37-38.05 1198.20-39.49L1198.20-39.49L1198.20-39.49Q1200.04-40.94 1202.19-41.58L1202.19-41.58L1202.19-41.58Q1204.34-42.23 1206.21-42.23L1206.21-42.23L1231.17-42.23L1231.17-32.07L1206.29-32.07L1206.29-32.07Q1205.51-32.07 1205.06-31.89L1205.06-31.89L1205.06-31.89Q1204.61-31.72 1204.39-31.43L1204.39-31.43L1204.39-31.43Q1204.18-31.13 1204.14-30.80L1204.14-30.80L1204.14-30.80Q1204.10-30.47 1204.10-30.16L1204.10-30.16L1204.10-30.16Q1204.14-29.53 1204.34-29.18L1204.34-29.18L1204.34-29.18Q1204.53-28.83 1204.82-28.67L1204.82-28.67L1204.82-28.67Q1205.12-28.52 1205.49-28.50L1205.49-28.50L1205.49-28.50Q1205.86-28.48 1206.21-28.48L1206.21-28.48L1221.95-28.48L1221.95-28.48Q1225.86-28.48 1228.59-27.07L1228.59-27.07L1228.59-27.07Q1231.33-25.66 1233.01-23.54L1233.01-23.54L1233.01-23.54Q1234.69-21.41 1235.45-18.91L1235.45-18.91L1235.45-18.91Q1236.21-16.41 1236.21-14.26ZM1254.84-56.02L1252.46-13.75L1245.47-13.75L1243.09-56.02L1254.84-56.02ZM1254.06-5.12L1254.06-5.12L1254.06-5.12Q1254.06-4.06 1253.65-3.14L1253.65-3.14L1253.65-3.14Q1253.24-2.23 1252.56-1.54L1252.56-1.54L1252.56-1.54Q1251.88-0.86 1250.96-0.47L1250.96-0.47L1250.96-0.47Q1250.04-0.08 1249.02-0.08L1249.02-0.08L1249.02-0.08Q1247.97-0.08 1247.05-0.47L1247.05-0.47L1247.05-0.47Q1246.13-0.86 1245.45-1.54L1245.45-1.54L1245.45-1.54Q1244.77-2.23 1244.38-3.14L1244.38-3.14L1244.38-3.14Q1243.98-4.06 1243.98-5.12L1243.98-5.12L1243.98-5.12Q1243.98-6.13 1244.38-7.05L1244.38-7.05L1244.38-7.05Q1244.77-7.97 1245.45-8.65L1245.45-8.65L1245.45-8.65Q1246.13-9.34 1247.05-9.75L1247.05-9.75L1247.05-9.75Q1247.97-10.16 1249.02-10.16L1249.02-10.16L1249.02-10.16Q1250.04-10.16 1250.96-9.75L1250.96-9.75L1250.96-9.75Q1251.88-9.34 1252.56-8.65L1252.56-8.65L1252.56-8.65Q1253.24-7.97 1253.65-7.05L1253.65-7.05L1253.65-7.05Q1254.06-6.13 1254.06-5.12Z"></path></g></g><style>text {
  font-size: 64px;
  font-family: Arial Black;
  dominant-baseline: central;
  text-anchor: middle;
}</style></svg>